<?xml version="1.0" encoding="UTF-8" standalone="no"?>
<svg
   xmlns:osb="http://www.openswatchbook.org/uri/2009/osb"
   xmlns:dc="http://purl.org/dc/elements/1.1/"
   xmlns:cc="http://creativecommons.org/ns#"
   xmlns:rdf="http://www.w3.org/1999/02/22-rdf-syntax-ns#"
   xmlns:svg="http://www.w3.org/2000/svg"
   xmlns="http://www.w3.org/2000/svg"
   xmlns:sodipodi="http://sodipodi.sourceforge.net/DTD/sodipodi-0.dtd"
   xmlns:inkscape="http://www.inkscape.org/namespaces/inkscape"
   width="399.39087pt"
   height="359.69946pt"
   viewBox="0 0 399.39087 359.69947"
   version="1.1"
   id="svg9"
   sodipodi:docname="hypergraphs.jl - Copy (4).svg"
   inkscape:version="0.92.4 (5da689c313, 2019-01-14)">
  <metadata
     id="metadata15">
    <rdf:RDF>
      <cc:Work
         rdf:about="">
        <dc:format>image/svg+xml</dc:format>
        <dc:type
           rdf:resource="http://purl.org/dc/dcmitype/StillImage" />
        <dc:title></dc:title>
      </cc:Work>
    </rdf:RDF>
  </metadata>
  <defs
     id="defs13">
    <linearGradient
       id="linearGradient2291"
       osb:paint="solid">
      <stop
         style="stop-color:#4063d8;stop-opacity:1;"
         offset="0"
         id="stop2289" />
    </linearGradient>
  </defs>
  <sodipodi:namedview
     pagecolor="#ffffff"
     bordercolor="#666666"
     borderopacity="1"
     objecttolerance="7"
     gridtolerance="10"
     guidetolerance="10"
     inkscape:pageopacity="0"
     inkscape:pageshadow="2"
     inkscape:window-width="1920"
     inkscape:window-height="991"
     id="namedview11"
     showgrid="false"
     inkscape:zoom="0.81441057"
     inkscape:cx="136.58617"
     inkscape:cy="354.31626"
     inkscape:window-x="-9"
     inkscape:window-y="439"
     inkscape:window-maximized="1"
     inkscape:current-layer="svg9"
     units="pt"
     inkscape:snap-path-mask="false"
     fit-margin-top="0"
     fit-margin-left="0"
     fit-margin-right="0"
     fit-margin-bottom="0">
    <inkscape:grid
       type="xygrid"
       id="grid4597"
       originx="35.804528"
       originy="28.70532" />
  </sodipodi:namedview>
  <path
     style="fill:#4063d8;fill-opacity:0.20398009;fill-rule:nonzero;stroke:#4063d8;stroke-width:13.5;stroke-miterlimit:4;stroke-dasharray:none;stroke-opacity:1"
     d="m 198.30478,6.75 c -25.56377,0 -61.66331,12.917806 -75.53112,38.288835 L 14.010213,235.98594 c -10.3985551,18.74175 -9.5077441,47.91843 3.299846,71.58975 12.646125,23.3729 37.700957,45.36664 69.085306,45.36664 0.728732,0 -2.61379,-0.009 -1.88948,-0.0257 H 310.89961 l -4.83479,-0.0423 c 1.12329,0.0405 7.08512,0.0681 8.21925,0.0681 23.84612,0 47.54344,-9.90822 68.01543,-45.36674 7.77896,-13.47355 16.1978,-48.9956 4.62603,-71.58975 L 273.74512,44.870927 C 259.84304,19.590895 220.53969,6.75 198.30478,6.75 Z"
     id="path4-2-6"
     inkscape:connector-curvature="0"
     sodipodi:nodetypes="sccsscccssccs" />
  <path
     inkscape:connector-curvature="0"
     id="path2"
     d="m 186.70297,255.99414 c 0,41.42187 -33.57813,75 -75,75 -41.421878,0 -75.000002,-33.57813 -75.000002,-75 0,-41.42188 33.578124,-75 75.000002,-75 41.42187,0 75,33.57812 75,75"
     style="fill:#ca3a33;fill-opacity:1;fill-rule:nonzero;stroke:none" />
  <path
     inkscape:connector-curvature="0"
     id="path4"
     d="m 273.30453,105.99414 c 0,41.42188 -33.57813,75 -75,75 -41.42187,0 -75,-33.57812 -75,-75 0,-41.421879 33.57813,-75.000004 75,-75.000004 41.42187,0 75,33.578125 75,75.000004"
     style="fill:#389723;fill-opacity:1;fill-rule:nonzero;stroke:none" />
  <path
     inkscape:connector-curvature="0"
     id="path6"
     d="m 359.90609,255.99414 c 0,41.42187 -33.57812,75 -75,75 -41.42187,0 -75,-33.57813 -75,-75 0,-41.42188 33.57813,-75 75,-75 41.42188,0 75,33.57812 75,75"
     style="fill:#9457b0;fill-opacity:1;fill-rule:nonzero;stroke:none" />
</svg>
